<svg id="heart-outline" xmlns="http://www.w3.org/2000/svg" width="54" height="54" viewBox="0 0 54 54">
  <g id="heart">
    <rect id="Rectangle_101" data-name="Rectangle 101" width="54" height="54" fill="#fff" opacity="0"/>
    <path id="Path_228" data-name="Path 228" d="M24.5,42.249a2.25,2.25,0,0,1-1.6-.653L5.422,24.092a11.773,11.773,0,1,1,16.65-16.65l2.43,2.43,2.43-2.43a11.773,11.773,0,1,1,16.65,16.65L26.1,41.6a2.25,2.25,0,0,1-1.6.652ZM13.747,8.5a7.2,7.2,0,0,0-5.13,2.115,7.29,7.29,0,0,0,0,10.283L24.5,36.8,40.387,20.9a7.29,7.29,0,0,0,0-10.283,7.47,7.47,0,0,0-10.26,0L26.1,14.664a2.25,2.25,0,0,1-3.195,0l-4.028-4.05A7.2,7.2,0,0,0,13.747,8.5Z" transform="translate(2.498 5.001)" fill="#fff"/>
  </g>
</svg>
