<svg id="shield-outline" xmlns="http://www.w3.org/2000/svg" width="54" height="54" viewBox="0 0 54 54">
  <g id="shield">
    <rect id="Rectangle_81" data-name="Rectangle 81" width="54" height="54" fill="#fff" opacity="0"/>
    <path id="Path_225" data-name="Path 225" d="M27,51.85a5.579,5.579,0,0,1-2.667-.63l-.8-.429C10.847,44,3,31.29,3,17.508v-.353a5,5,0,0,1,2.667-4.413L24.333,2.808a5.6,5.6,0,0,1,5.333,0l18.667,9.934A5,5,0,0,1,51,17.155v.353C50.986,31.3,43.12,44.017,30.413,50.791l-.8.429A5.577,5.577,0,0,1,27,51.85ZM27,7.22,8.333,17.155v.353c.009,11.967,6.837,23,17.867,28.87l.8.429.8-.429c11.029-5.87,17.857-16.9,17.867-28.87v-.353Z" transform="translate(0 0)" fill="#fff"/>
  </g>
</svg>
