<svg id="shopping-bag-outline" xmlns="http://www.w3.org/2000/svg" width="54" height="54" viewBox="0 0 54 54">
  <g id="shopping-bag">
    <rect id="Rectangle_102" data-name="Rectangle 102" width="54" height="54" fill="#fff" opacity="0"/>
    <path id="Path_229" data-name="Path 229" d="M41.52,11.347,35.153,4.98A6.75,6.75,0,0,0,30.383,3H16.118a6.75,6.75,0,0,0-4.77,1.98L4.98,11.347A6.75,6.75,0,0,0,3,16.118V36.75A6.75,6.75,0,0,0,9.75,43.5h27a6.75,6.75,0,0,0,6.75-6.75V16.118a6.75,6.75,0,0,0-1.98-4.77Zm-27-3.195a2.362,2.362,0,0,1,1.6-.652H30.382a2.363,2.363,0,0,1,1.6.653L35.827,12H10.672ZM36.75,39h-27A2.25,2.25,0,0,1,7.5,36.75V16.5H39V36.75A2.25,2.25,0,0,1,36.75,39Z" transform="translate(3.75 3.75)" fill="#fff"/>
    <path id="Path_230" data-name="Path 230" d="M23.75,11a2.25,2.25,0,0,0-2.25,2.25,4.5,4.5,0,0,1-9,0,2.25,2.25,0,0,0-4.5,0,9,9,0,0,0,18,0A2.25,2.25,0,0,0,23.75,11Z" transform="translate(10 13.75)" fill="#fff"/>
  </g>
</svg>
